inDegrees=no
num_controls=7
num_derivatives=13
num_iterations=101
num_multipliers=7
num_parameters=0
num_slacks=7
num_states=26
objective=0.469862
objective_accelerations=0.063320
objective_balance=0.002035
objective_effort=0.020289
objective_height=0.374613
objective_ligament=0.009605
solver_duration=1354.132012
status=Solve_Succeeded
success=true
DataType=double
version=3
OpenSimVersion=4.5
endheader
time	/jointset/ground_pelvis/pelvis_tilt/value	/jointset/ground_pelvis/pelvis_tx/value	/jointset/ground_pelvis/pelvis_ty/value	/jointset/hip_l/hip_flexion_l/value	/jointset/hip_l/hip_adduction_l/value	/jointset/hip_l/hip_rotation_l/value	/jointset/back/lumbar_extension/value	/jointset/patellofemoral_l/patellar_flexion_l/value	/jointset/knee_l/knee_flexion_l/value	/jointset/knee_l/knee_adduction_l/value	/jointset/knee_l/knee_rotation_l/value	/jointset/ankle_l/ankle_angle_l/value	/jointset/subtalar_l/subtalar_angle_l/value	/jointset/ground_pelvis/pelvis_tilt/speed	/jointset/ground_pelvis/pelvis_tx/speed	/jointset/ground_pelvis/pelvis_ty/speed	/jointset/hip_l/hip_flexion_l/speed	/jointset/hip_l/hip_adduction_l/speed	/jointset/hip_l/hip_rotation_l/speed	/jointset/back/lumbar_extension/speed	/jointset/patellofemoral_l/patellar_flexion_l/speed	/jointset/knee_l/knee_flexion_l/speed	/jointset/knee_l/knee_adduction_l/speed	/jointset/knee_l/knee_rotation_l/speed	/jointset/ankle_l/ankle_angle_l/speed	/jointset/subtalar_l/subtalar_angle_l/speed	/forceset/tau_hip_flexion_l	/forceset/tau_hip_adduction_l	/forceset/tau_hip_rotation_l	/forceset/tau_knee_flexion_l	/forceset/tau_ankle_angle_l	/forceset/tau_subtalar_angle_l	/forceset/tau_lumbar_extension	lambda_cid13_p0	lambda_cid13_p1	lambda_cid13_p2	lambda_cid13_p3	lambda_cid13_p4	lambda_cid13_p5	lambda_cid14_p0	/jointset/ground_pelvis/pelvis_tilt/accel	/jointset/ground_pelvis/pelvis_tx/accel	/jointset/ground_pelvis/pelvis_ty/accel	/jointset/hip_l/hip_flexion_l/accel	/jointset/hip_l/hip_adduction_l/accel	/jointset/hip_l/hip_rotation_l/accel	/jointset/back/lumbar_extension/accel	/jointset/patellofemoral_l/patellar_flexion_l/accel	/jointset/knee_l/knee_flexion_l/accel	/jointset/knee_l/knee_adduction_l/accel	/jointset/knee_l/knee_rotation_l/accel	/jointset/ankle_l/ankle_angle_l/accel	/jointset/subtalar_l/subtalar_angle_l/accel	gamma_cid13_p0	gamma_cid13_p1	gamma_cid13_p2	gamma_cid13_p3	gamma_cid13_p4	gamma_cid13_p5	gamma_cid14_p0
0.5	-0.4167766944082673	-0.06451469212245581	0.7760329585305885	1.185895559343017	-0.3531006445256537	-0.06461117772009492	-0.4069851757863857	0.7126590622424644	0.7126590622425146	-0.05434650695816817	-0.1744943484377157	0.04855706210050807	0.0825762295208889	-1.314441894386524	-0.403447351152138	-0.5018176076979349	2.89250796359374	0.04473117479887487	0.4328046749037537	-0.2910691571187744	1.347552197817257	1.347552197817054	0.215137572159456	0.0002018393849940776	-0.1287943320280643	0.002973683552539012	-0.1656834305616307	0.009290270897816907	0.005435215395866306	-0.1440610084658869	0.09645341363301935	0.002122053167682727	0.1498798631951378	5.969271578081077	-1.27566771263994	-0.8670547834855171	-8.30318909802283	-434.623952674277	-60.35820173268645	-14.67355942678883	0.499280646086594	0.6992322649541284	-0.3893381783378395	-1.692045048896945	0.09483175684863414	-0.3830128302713674	1.555557507075198	-1.055590867753631	-1.05559086775364	-0.4389838530008064	0.06448562472826573	0.004523367454014649	0.1030352883677109	-1.371430166879806e-08	-1.314567354152206e-06	-5.569200449774108e-07	-2.776608525565365e-07	-2.700481772320118e-07	2.228990673762526e-07	-1.725260595641075e-07
0.51	-0.4298933114814188	-0.06851355694178174	0.7709966484906867	1.214730346918734	-0.3526496101912898	-0.06030582004004417	-0.4098189694762904	0.7260794153284909	0.7260794153285125	-0.05221733555839249	-0.1744924336679061	0.04726932012812692	0.08261008002261348	-1.308702440703192	-0.3962699890900061	-0.5053218490440793	2.874027577378159	0.04545641792101235	0.4282624333133467	-0.2756618969163874	1.336304933808865	1.336304933808662	0.2106391364747226	0.0002087278623883652	-0.1287372230601657	0.003781068540149281	-0.1727365102116353	0.01008429293966371	0.004970964365964235	-0.1443247666339052	0.09821903250446365	0.002838750300849353	0.1548286800548164	6.377467789751312	-1.524367446980467	-0.9805041277095123	-8.744957025099044	-438.4513286558473	-60.44424579464434	-14.12441999240529	0.6381148436304241	0.7352718401943248	-0.3126306908180219	-1.989358272281562	0.05879879478197818	-0.4906006588113102	1.537462868607907	-1.191285255920254	-1.19128525592037	-0.4642178603108454	-0.02714888849845765	0.008772491081885162	0.06759190863070816	1.807135877289476e-09	-1.335138844077428e-06	-7.098062798236705e-07	-2.962189108530713e-07	-2.224634250137344e-07	2.130230493639278e-07	-1.568575350091908e-07
0.52	-0.4429471665948991	-0.07243899140781607	0.7659289633217105	1.243367666059421	-0.3521918377847274	-0.056046038942971	-0.4124978600458127	0.7393808975567294	0.7393808975567112	-0.0501349374023075	-0.1744896378828611	0.04598264281134964	0.08265160473514876	-1.301889502452912	-0.3887612804938178	-0.5080926335128296	2.85301427658686	0.04607878923857223	0.4236893583075041	-0.2600885330425058	1.32377802625894	1.323778026258736	0.2057829234259418	0.0003780424300436757	-0.1285814009073027	0.00450852571468071	-0.1797895898616148	0.01087831498152923	0.004506713335977082	-0.1445885248019159	0.09998465137591345	0.003555447434037865	0.1597774969145171	6.785195680716549	-1.772808101392121	-1.094197473733851	-9.184975881605924	-442.284011285497	-60.54570130664812	-13.57892798886225	0.7139775594763715	0.7655015717654284	-0.2426468028590361	-2.198627964040445	0.07425739593310843	-0.389179513358513	1.588778241374076	-1.311519576060513	-1.311519576060516	-0.5105393258102611	0.09697084278046374	0.02426600444688598	0.08704972575194427	1.56099580021903e-09	-1.26037482985722e-06	-6.728265704850537e-07	-2.897905425226268e-07	-2.045714252203521e-07	2.254147255268659e-07	-1.530503674237338e-07
0.53	-0.4559277665442119	-0.07628784072180728	0.7608372427378867	1.271782686539881	-0.3517281577115408	-0.0518330503962835	-0.415020346454574	0.7525508464337398	0.7525508464337048	-0.04810186176043735	-0.174484908006338	0.04469798008289125	0.08270021597092635	-1.294065629201968	-0.3809678625525003	-0.5101264745727773	2.829597683931877	0.04665923041497286	0.4187774770118231	-0.2444069808528266	1.310002092561391	1.310002092561228	0.200892965374301	0.000515192065029572	-0.1283399787166873	0.005220697312478652	-0.1867991177096822	0.0115911271894179	0.003964437945004846	-0.1447810390887515	0.1014999099621842	0.004283772105384819	0.1646001438637881	7.107559597318655	-2.017163195928496	-1.201903875104913	-9.486165999718276	-446.1472150726853	-60.64371363427384	-13.03723227291193	0.8412961441707296	0.7923125853212956	-0.1650404904107302	-2.472021567157856	0.05052496862122301	-0.5619286046525523	1.558108886233672	-1.442048543397548	-1.442048543391382	-0.4693885918854638	-0.03589575552774271	0.02570304541519357	0.06461849748463422	-3.604589030700131e-08	-9.532832098477959e-07	-1.818954587814448e-07	-2.106195345354269e-07	-2.536714318592213e-07	3.058833569797494e-07	-1.728458217607277e-07
0.54	-0.4688251869737594	-0.08005754572038402	0.7557289261968938	1.299951771763609	-0.3512585557285648	-0.04767312789594833	-0.4173859643057439	0.7655767523183932	0.7655767523183825	-0.04611591860844762	-0.1744804031893678	0.04341605612014839	0.08275621244682012	-1.285253598500332	-0.3729324174109261	-0.5114118249466516	2.803827225239671	0.04726317119648081	0.4130761490369549	-0.2287148215243975	1.294969427792024	1.294969427791902	0.19635642544088	0.0003330305246016121	-0.1280336477642187	0.005985573737913044	-0.1938086455577338	0.01230393939730855	0.003422162554231846	-0.1449735533755891	0.1030151685484528	0.005012096776730975	0.169422790813076	7.428946208098496	-2.261581352274746	-1.309333284332824	-9.786978140978835	-450.0261033668318	-60.76065254147598	-12.49969599454113	0.9116090496149541	0.8139070118167876	-0.09294866564438838	-2.669401171485027	0.07895731695457801	-0.5470688491959258	1.590899669124024	-1.562865790424105	-1.56286579042417	-0.4398557021663134	0.03310860769768696	0.0372477568175592	0.09759069127923574	-1.14988069894388e-07	-3.891482813056185e-07	8.112797576664168e-07	-5.096730820458195e-08	-3.768902541252632e-07	4.616711730087434e-07	-2.187548152459657e-07
